# xmcd CD database file
#
# Track frame offsets:
#	150
#	16197
#	36077
#	53375
#	73652
#	92397
#	114660
#	126185
#	144472
#	160280
#	177532
#
# Disc length: 2541 seconds
#
# Revision: 0
# Processed by: cddbd v1.4PL0 Copyright (c) Steve Scherf et al.
# Submitted via: CDex 1.40Beta8
#
DISCID=8c09eb0b
DTITLE=Monte Nordstrom - Monte Nordstrom
DYEAR=1994
DGENRE=Blues
TTITLE0=The Muse
TTITLE1=Get What's Mine
TTITLE2=You Got A Way
TTITLE3=Buffalo Taxi
TTITLE4=Ransom
TTITLE5=Private Hell
TTITLE6=Long Lonely Night
TTITLE7=Grain Of Salt
TTITLE8=Catch The Brass Ring
TTITLE9=Life Is But A Dream
TTITLE10=Grain Of Salt
EXTD=YEAR: 1994 ID3G: 0
EXTT0=
EXTT1=
EXTT2=
EXTT3=
EXTT4=
EXTT5=
EXTT6=
EXTT7=
EXTT8=
EXTT9=
EXTT10=
PLAYORDER=
